<?xml version="1.0" encoding="UTF-8"?>
<svg id="Layer_2" data-name="Layer 2" xmlns="http://www.w3.org/2000/svg" viewBox="0 0 146.96 146.96">
  <defs>
    <style>
      .cls-1 {
        fill: #98979b;
      }
    </style>
  </defs>
  <g id="Capa_1" data-name="Capa 1">
    <rect class="cls-1" width="146.96" height="146.96"/>
    <path d="M143.96,3.01v141.32H2.63V3.01h141.32ZM140.2,4.89H6.39l24.32,24.39,1.07-.31,10.69-10.17,3.01,27.06-27.06-3.39,10.87-11.41L4.89,7.15v133.05l24.4-24.29-10.5-11.41,26.69-3.01-3.01,26.68-10.69-10.17-1.07-.31-23.94,24.39h133.05l-23.92-24.4-11.41,10.5-3.39-26.68,27.06,3.01c.13.66-.35.92-.74,1.33-3.11,3.25-6.39,6.42-9.77,9.39l-.34,1.05,24.76,24.31V6.77l-24.78,24.29,10.87,11.41-27.06,3.39,3.38-27.06c1.93,1.12,9.97,10.74,11.4,10.47l24.3-24.37Z"/>
    <path class="cls-1" d="M140.2,4.89l-24.3,24.37c-1.43.28-9.48-9.35-11.4-10.47l-3.38,27.06,27.06-3.39-10.87-11.41,24.78-24.29v133.81l-24.76-24.31.34-1.05c3.38-2.97,6.66-6.15,9.77-9.39.39-.41.88-.67.74-1.33l-27.06-3.01,3.39,26.68,11.41-10.5,23.92,24.4H6.77l23.94-24.39,1.07.31,10.69,10.17,3.01-26.68-26.69,3.01,10.5,11.41-24.4,24.29V7.15l24.4,23.92-10.87,11.41,27.06,3.39-3.01-27.06-10.69,10.17-1.07.31L6.39,4.89h133.81ZM110.36,73.54c0-20.44-16.57-37.01-37.01-37.01s-37.01,16.57-37.01,37.01,16.57,37.01,37.01,37.01,37.01-16.57,37.01-37.01Z"/>
    <circle cx="73.36" cy="73.54" r="37.01"/>
  </g>
</svg>