<?xml version="1.0" encoding="UTF-8"?>
<svg id="Layer_2" data-name="Layer 2" xmlns="http://www.w3.org/2000/svg" viewBox="0 0 342.69 162.36">
  <defs>
    <style>
      .cls-1 {
        fill: #00ff67;
      }
    </style>
  </defs>
  <g id="Capa_1" data-name="Capa 1">
    <g>
      <path class="cls-1" d="M35.32,36.33v9.56H2.47V0h10.82v36.33h22.03Z"/>
      <path class="cls-1" d="M67.02,40.38c-1.22,1.43-2.58,2.63-4.08,3.58s-3.1,1.65-4.81,2.09-3.41.66-5.1.66c-2.79,0-5.32-.41-7.6-1.23-2.28-.82-4.24-2-5.89-3.54-1.65-1.54-2.92-3.43-3.83-5.67s-1.36-4.77-1.36-7.59.49-5.16,1.46-7.37c.97-2.21,2.28-4.09,3.92-5.63,1.65-1.54,3.58-2.73,5.79-3.58s4.57-1.27,7.06-1.27c2.83,0,5.36.51,7.6,1.52s4.12,2.44,5.67,4.27c1.54,1.84,2.68,4.02,3.42,6.55.74,2.53,1.02,5.32.85,8.36h-25.25c.08,1.22.36,2.28.82,3.16.46.89,1.07,1.61,1.8,2.18.74.57,1.55,1,2.44,1.3.89.29,1.81.44,2.78.44,1.98,0,3.61-.32,4.87-.95,1.27-.63,2.19-1.46,2.78-2.47h9.62c-.76,2.03-1.75,3.75-2.97,5.19ZM47.63,20.32c-1.46,1.01-2.33,2.64-2.63,4.87h14.75c-.08-2.15-.8-3.75-2.15-4.81-1.35-1.05-3.02-1.58-5-1.58-1.86,0-3.51.51-4.97,1.52Z"/>
      <path class="cls-1" d="M85.12,2.53v9.3h7.47v7.41h-7.47v15.25c0,1.6.32,2.65.95,3.13s1.81.73,3.54.73h2.97v7.53h-6.65c-2.11,0-3.88-.13-5.32-.38s-2.59-.73-3.48-1.42-1.52-1.67-1.9-2.91c-.38-1.24-.57-2.86-.57-4.84v-17.09h-5.38v-7.41h5.38V2.53h10.44Z"/>
      <path class="cls-1" d="M96.32,21.2v-11.84l6.46-9.37h6.2l-5.51,10h4.56v11.2h-11.71Z"/>
      <path class="cls-1" d="M130.06,19.24c-1.22-.46-2.66-.7-4.3-.7-3.63,0-5.44.84-5.44,2.53,0,.8.33,1.43.98,1.9s1.72.84,3.2,1.14l6.33,1.14c4.09.76,7.13,1.86,9.11,3.29,1.98,1.43,2.97,3.65,2.97,6.65,0,1.9-.41,3.58-1.23,5.03-.82,1.46-1.97,2.66-3.45,3.61-1.48.95-3.22,1.67-5.22,2.15-2,.49-4.19.73-6.55.73-2.24,0-4.31-.24-6.23-.73-1.92-.49-3.61-1.22-5.06-2.21-1.46-.99-2.65-2.24-3.58-3.73-.93-1.5-1.54-3.24-1.84-5.22h9.68c.46,1.65,1.32,2.77,2.56,3.39,1.24.61,2.77.92,4.59.92s3.38-.25,4.56-.76c1.18-.51,1.77-1.27,1.77-2.28,0-.76-.39-1.39-1.17-1.9-.78-.51-2.16-.93-4.15-1.27l-6.08-1.01c-3.29-.55-5.96-1.67-8.01-3.35-2.05-1.69-3.07-4.05-3.07-7.09,0-1.69.41-3.19,1.23-4.49.82-1.31,1.95-2.41,3.39-3.29,1.43-.89,3.09-1.56,4.97-2.03,1.88-.46,3.87-.7,5.98-.7,1.94,0,3.81.2,5.6.6,1.79.4,3.42,1.04,4.87,1.93,1.46.89,2.68,2.01,3.67,3.39.99,1.37,1.66,3.03,1.99,4.97h-9.75c-.34-1.27-1.12-2.13-2.34-2.59Z"/>
      <path class="cls-1" d="M177.43,11.49c1.79.44,3.46,1.19,5,2.25,1.54,1.06,2.89,2.44,4.05,4.15,1.16,1.71,1.99,3.85,2.5,6.42h-9.75c-.46-1.98-1.28-3.38-2.44-4.18-1.16-.8-2.52-1.2-4.08-1.2-.93,0-1.84.17-2.72.51-.89.34-1.68.9-2.37,1.68s-1.26,1.79-1.68,3.04-.63,2.77-.63,4.59.21,3.42.63,4.68.98,2.28,1.68,3.04,1.49,1.31,2.37,1.65c.89.34,1.79.51,2.72.51,1.94,0,3.49-.47,4.65-1.42,1.16-.95,1.93-2.23,2.31-3.83h9.75c-.59,2.53-1.51,4.65-2.75,6.36s-2.66,3.08-4.24,4.11c-1.58,1.03-3.28,1.77-5.1,2.21s-3.57.67-5.25.67c-2.78,0-5.26-.43-7.44-1.3-2.17-.87-4-2.09-5.47-3.67-1.48-1.58-2.6-3.48-3.35-5.7-.76-2.22-1.14-4.67-1.14-7.37s.42-5.15,1.27-7.34,2.04-4.07,3.58-5.63c1.54-1.56,3.38-2.76,5.51-3.61s4.48-1.27,7.06-1.27c1.77,0,3.56.22,5.35.67Z"/>
      <path class="cls-1" d="M211.25,21.68c-.42-.02-.86-.03-1.33-.03-2.53,0-4.44.53-5.73,1.58-1.29,1.05-1.93,2.91-1.93,5.57v17.09h-10.44V11.84h10.06v6.46c.8-2.03,1.94-3.63,3.42-4.81,1.48-1.18,3.44-1.81,5.89-1.9h.76c.3,0,.57.02.82.06v10.19c-.59-.08-1.1-.14-1.52-.16Z"/>
      <path class="cls-1" d="M245.24,40.38c-1.22,1.43-2.58,2.63-4.08,3.58s-3.1,1.65-4.81,2.09c-1.71.44-3.41.66-5.1.66-2.78,0-5.32-.41-7.59-1.23-2.28-.82-4.24-2-5.89-3.54-1.65-1.54-2.92-3.43-3.83-5.67s-1.36-4.77-1.36-7.59.49-5.16,1.46-7.37c.97-2.21,2.28-4.09,3.92-5.63,1.65-1.54,3.58-2.73,5.79-3.58s4.57-1.27,7.06-1.27c2.83,0,5.36.51,7.6,1.52s4.12,2.44,5.67,4.27c1.54,1.84,2.68,4.02,3.42,6.55.74,2.53,1.02,5.32.85,8.36h-25.25c.08,1.22.36,2.28.82,3.16.46.89,1.07,1.61,1.8,2.18.74.57,1.55,1,2.44,1.3.89.29,1.81.44,2.78.44,1.98,0,3.61-.32,4.87-.95,1.27-.63,2.19-1.46,2.79-2.47h9.62c-.76,2.03-1.75,3.75-2.97,5.19ZM225.84,20.32c-1.46,1.01-2.33,2.64-2.63,4.87h14.75c-.08-2.15-.8-3.75-2.15-4.81-1.35-1.05-3.02-1.58-5-1.58-1.86,0-3.51.51-4.97,1.52Z"/>
      <path class="cls-1" d="M270.62,19.05c-.97-.8-2.41-1.2-4.3-1.2-1.69,0-3.07.42-4.15,1.27-1.08.84-1.72,2.09-1.93,3.73h-9.75c.13-1.6.59-3.13,1.39-4.59.8-1.46,1.92-2.74,3.35-3.86,1.44-1.12,3.15-2,5.16-2.66,2-.65,4.27-.98,6.8-.98s4.62.26,6.52.79c1.9.53,3.5,1.36,4.81,2.5,1.31,1.14,2.29,2.62,2.94,4.43s.96,4.01.92,6.58l-.13,7.41v3.54c0,1.27.03,2.51.1,3.73.06,1.22.15,2.37.25,3.45.11,1.08.24,1.97.41,2.69h-10.25l-.13-4.11c-1.27,1.81-2.88,3.09-4.84,3.83-1.96.74-4.17,1.11-6.61,1.11-1.6,0-3.12-.23-4.56-.7-1.43-.46-2.69-1.13-3.77-1.99-1.08-.87-1.92-1.91-2.53-3.13-.61-1.22-.92-2.62-.92-4.18,0-2.07.56-3.82,1.68-5.25s2.68-2.62,4.68-3.54c2-.93,4.4-1.65,7.18-2.15,2.78-.51,5.82-.89,9.11-1.14v-1.33c0-2.03-.49-3.44-1.46-4.24ZM267.36,31.33c-1.5.21-2.77.51-3.83.89-1.05.38-1.88.88-2.47,1.49-.59.61-.89,1.36-.89,2.25,0,1.1.46,1.98,1.39,2.66.93.67,2.07,1.01,3.42,1.01,1.05,0,2.03-.13,2.91-.38.89-.25,1.66-.69,2.31-1.3.65-.61,1.17-1.43,1.55-2.47.38-1.03.57-2.33.57-3.89v-.82c-1.81.17-3.47.36-4.97.57Z"/>
      <path class="cls-1" d="M298.53,2.53v9.3h7.47v7.41h-7.47v15.25c0,1.6.32,2.65.95,3.13.63.49,1.81.73,3.54.73h2.98v7.53h-6.65c-2.11,0-3.88-.13-5.32-.38s-2.6-.73-3.48-1.42c-.89-.7-1.52-1.67-1.9-2.91-.38-1.24-.57-2.86-.57-4.84v-17.09h-5.38v-7.41h5.38V2.53h10.44Z"/>
      <path class="cls-1" d="M339.54,40.38c-1.22,1.43-2.58,2.63-4.08,3.58s-3.1,1.65-4.81,2.09-3.41.66-5.1.66c-2.79,0-5.32-.41-7.6-1.23-2.28-.82-4.24-2-5.89-3.54-1.65-1.54-2.92-3.43-3.83-5.67s-1.36-4.77-1.36-7.59.48-5.16,1.46-7.37c.97-2.21,2.28-4.09,3.92-5.63,1.65-1.54,3.58-2.73,5.79-3.58s4.57-1.27,7.06-1.27c2.83,0,5.36.51,7.59,1.52s4.12,2.44,5.67,4.27c1.54,1.84,2.68,4.02,3.42,6.55.74,2.53,1.02,5.32.85,8.36h-25.25c.08,1.22.36,2.28.82,3.16.46.89,1.07,1.61,1.8,2.18.74.57,1.55,1,2.44,1.3.89.29,1.81.44,2.78.44,1.98,0,3.61-.32,4.87-.95,1.27-.63,2.19-1.46,2.78-2.47h9.62c-.76,2.03-1.75,3.75-2.97,5.19ZM320.14,20.32c-1.46,1.01-2.33,2.64-2.63,4.87h14.75c-.08-2.15-.8-3.75-2.15-4.81-1.35-1.05-3.02-1.58-5-1.58-1.86,0-3.51.51-4.97,1.52Z"/>
      <path class="cls-1" d="M24.84,64.6c2.17.72,4.09,1.8,5.76,3.26,1.67,1.46,3,3.31,3.99,5.57s1.49,4.93,1.49,8.01-.5,5.75-1.49,8.01c-.99,2.26-2.32,4.12-3.99,5.6-1.67,1.48-3.59,2.57-5.76,3.29-2.17.72-4.44,1.08-6.8,1.08s-4.63-.36-6.8-1.08c-2.17-.72-4.09-1.81-5.76-3.29-1.67-1.48-3-3.34-3.99-5.6-.99-2.26-1.49-4.93-1.49-8.01s.5-5.75,1.49-8.01,2.32-4.11,3.99-5.57c1.67-1.46,3.59-2.54,5.76-3.26,2.17-.72,4.44-1.08,6.8-1.08s4.63.36,6.8,1.08ZM15.16,72.13c-.91.34-1.7.9-2.37,1.68s-1.2,1.79-1.58,3.04c-.38,1.25-.57,2.77-.57,4.59s.19,3.29.57,4.56c.38,1.27.9,2.29,1.55,3.07.65.78,1.43,1.35,2.34,1.71.91.36,1.89.54,2.94.54s2.04-.18,2.94-.54c.91-.36,1.69-.93,2.34-1.71.65-.78,1.17-1.8,1.55-3.07.38-1.27.57-2.78.57-4.56s-.19-3.34-.57-4.59c-.38-1.25-.91-2.26-1.58-3.04-.68-.78-1.47-1.34-2.37-1.68-.91-.34-1.87-.51-2.88-.51s-1.97.17-2.88.51Z"/>
      <path class="cls-1" d="M56.17,97.89c-1.5,1.01-3.56,1.52-6.17,1.52-2.28,0-4.17-.32-5.66-.95-1.5-.63-2.7-1.56-3.61-2.78s-1.55-2.72-1.93-4.49c-.38-1.77-.57-3.82-.57-6.14v-20.51h10.44v17.91c0,1.22.03,2.37.1,3.45.06,1.08.26,2.01.6,2.82s.85,1.43,1.55,1.9c.7.46,1.68.7,2.94.7,2.24,0,3.82-.68,4.75-2.03.93-1.35,1.39-3.61,1.39-6.77v-17.98h10.44v34.05h-10.44v-4.75c-1.05,1.69-2.33,3.04-3.83,4.05Z"/>
      <path class="cls-1" d="M94.81,74.38c-.42-.02-.86-.03-1.33-.03-2.53,0-4.44.53-5.73,1.58s-1.93,2.91-1.93,5.57v17.09h-10.44v-34.05h10.06v6.46c.8-2.03,1.94-3.63,3.42-4.81,1.48-1.18,3.44-1.81,5.89-1.9h.76c.3,0,.57.02.82.06v10.19c-.59-.08-1.1-.14-1.52-.16Z"/>
      <path class="cls-1" d="M139.61,87.64l4.49-23.1h10.7l-7.85,34.05h-12.15l-4.56-25.13-4.56,25.13h-12.09l-7.85-34.05h10.7l4.49,23.1,3.92-23.1h10.76l3.99,23.1Z"/>
      <path class="cls-1" d="M178.5,64.6c2.17.72,4.09,1.8,5.76,3.26,1.67,1.46,3,3.31,3.99,5.57s1.49,4.93,1.49,8.01-.5,5.75-1.49,8.01c-.99,2.26-2.32,4.12-3.99,5.6-1.67,1.48-3.59,2.57-5.76,3.29-2.17.72-4.44,1.08-6.8,1.08s-4.63-.36-6.8-1.08c-2.17-.72-4.09-1.81-5.76-3.29-1.67-1.48-3-3.34-3.99-5.6-.99-2.26-1.49-4.93-1.49-8.01s.5-5.75,1.49-8.01c.99-2.26,2.32-4.11,3.99-5.57,1.67-1.46,3.59-2.54,5.76-3.26,2.17-.72,4.44-1.08,6.8-1.08s4.63.36,6.8,1.08ZM168.82,72.13c-.91.34-1.7.9-2.37,1.68-.67.78-1.2,1.79-1.58,3.04s-.57,2.77-.57,4.59.19,3.29.57,4.56c.38,1.27.9,2.29,1.55,3.07.65.78,1.43,1.35,2.34,1.71.91.36,1.89.54,2.94.54s2.04-.18,2.94-.54c.91-.36,1.69-.93,2.34-1.71.65-.78,1.17-1.8,1.55-3.07.38-1.27.57-2.78.57-4.56s-.19-3.34-.57-4.59c-.38-1.25-.91-2.26-1.58-3.04s-1.47-1.34-2.37-1.68c-.91-.34-1.87-.51-2.88-.51s-1.97.17-2.88.51Z"/>
      <path class="cls-1" d="M212.01,74.38c-.42-.02-.87-.03-1.33-.03-2.53,0-4.44.53-5.73,1.58s-1.93,2.91-1.93,5.57v17.09h-10.44v-34.05h10.06v6.46c.8-2.03,1.94-3.63,3.42-4.81,1.48-1.18,3.44-1.81,5.89-1.9h.76c.3,0,.57.02.82.06v10.19c-.59-.08-1.1-.14-1.52-.16Z"/>
      <path class="cls-1" d="M215.37,98.59v-45.89h10.44v45.89h-10.44Z"/>
      <path class="cls-1" d="M264.35,98.59h-10.44v-4.56c-.55.93-1.22,1.73-2.03,2.41-.8.68-1.68,1.23-2.63,1.68-.95.44-1.92.77-2.91.98s-1.95.32-2.88.32c-2.19,0-4.21-.41-6.04-1.23-1.84-.82-3.42-1.99-4.75-3.51-1.33-1.52-2.36-3.39-3.1-5.6-.74-2.22-1.11-4.72-1.11-7.5s.37-5.27,1.11-7.47c.74-2.19,1.77-4.06,3.1-5.6s2.91-2.71,4.75-3.51c1.83-.8,3.85-1.2,6.04-1.2.93,0,1.89.11,2.88.32s1.96.54,2.91.98c.95.44,1.82,1,2.63,1.68.8.68,1.48,1.48,2.03,2.41v-16.46h10.44v45.89ZM243.94,72.51c-.91.42-1.71,1.03-2.41,1.84-.7.8-1.24,1.81-1.65,3.04s-.6,2.62-.6,4.18.2,3.01.6,4.21c.4,1.2.95,2.22,1.65,3.04.7.82,1.5,1.45,2.41,1.87s1.89.63,2.94.63,1.98-.18,2.91-.54c.93-.36,1.73-.93,2.41-1.71.68-.78,1.21-1.78,1.61-3.01s.6-2.72.6-4.49-.2-3.27-.6-4.49-.94-2.22-1.61-2.98c-.68-.76-1.48-1.32-2.41-1.68-.93-.36-1.9-.54-2.91-.54s-2.04.21-2.94.63Z"/>
      <path class="cls-1" d="M12.47,113.75H2.03v-8.35h10.44v8.35ZM12.53,151.28H2.03v-34.05h10.51v34.05Z"/>
      <path class="cls-1" d="M29.4,119.83c.65-.63,1.42-1.19,2.31-1.68.89-.49,1.89-.89,3.01-1.2s2.35-.47,3.7-.47c2.19,0,4.02.32,5.47.95,1.46.63,2.63,1.56,3.51,2.79s1.52,2.72,1.9,4.49c.38,1.77.57,3.82.57,6.14v20.44h-10.44v-17.85c0-1.22-.03-2.37-.09-3.45-.06-1.08-.27-2.02-.63-2.82-.36-.8-.89-1.43-1.58-1.9-.7-.46-1.68-.7-2.94-.7-2.24,0-3.85.75-4.84,2.25s-1.49,3.83-1.49,6.99v17.47h-10.44v-34.05h10.44v4.49c.38-.63.9-1.27,1.55-1.9Z"/>
      <path class="cls-1" d="M83.73,124.64c-1.22-.46-2.66-.7-4.3-.7-3.63,0-5.44.84-5.44,2.53,0,.8.33,1.43.98,1.9.65.46,1.72.84,3.2,1.14l6.33,1.14c4.09.76,7.13,1.86,9.11,3.29,1.98,1.43,2.98,3.65,2.98,6.65,0,1.9-.41,3.58-1.23,5.03-.82,1.46-1.97,2.66-3.45,3.61-1.48.95-3.22,1.67-5.22,2.15-2,.49-4.19.73-6.55.73-2.24,0-4.31-.24-6.23-.73s-3.61-1.22-5.06-2.21c-1.46-.99-2.65-2.24-3.58-3.73-.93-1.5-1.54-3.24-1.84-5.22h9.68c.46,1.65,1.32,2.77,2.56,3.39,1.24.61,2.77.92,4.59.92s3.38-.25,4.56-.76c1.18-.51,1.77-1.27,1.77-2.28,0-.76-.39-1.39-1.17-1.9-.78-.51-2.16-.93-4.15-1.27l-6.08-1.01c-3.29-.55-5.96-1.67-8.01-3.35-2.05-1.69-3.07-4.05-3.07-7.09,0-1.69.41-3.19,1.23-4.49.82-1.31,1.95-2.41,3.39-3.29,1.43-.89,3.09-1.56,4.97-2.03,1.88-.46,3.87-.7,5.98-.7,1.94,0,3.81.2,5.6.6,1.79.4,3.42,1.04,4.87,1.93,1.46.89,2.68,2.01,3.67,3.39.99,1.37,1.66,3.03,1.99,4.97h-9.75c-.34-1.27-1.12-2.13-2.34-2.59Z"/>
      <path class="cls-1" d="M109.8,113.75h-10.44v-8.35h10.44v8.35ZM109.87,151.28h-10.51v-34.05h10.51v34.05Z"/>
      <path class="cls-1" d="M148.54,151.28h-11.77l-7.28-9.75-7.41,9.75h-11.08l13.1-17.03-12.6-17.03h11.84l6.77,9.18,7.03-9.18h10.89l-12.53,16.46,13.04,17.6Z"/>
      <path class="cls-1" d="M194.36,151.28h-10.44v-4.56c-.55.93-1.22,1.73-2.03,2.41-.8.68-1.68,1.23-2.63,1.68-.95.44-1.92.77-2.91.98s-1.95.32-2.88.32c-2.19,0-4.21-.41-6.04-1.23-1.84-.82-3.42-1.99-4.75-3.51-1.33-1.52-2.36-3.39-3.1-5.6-.74-2.22-1.11-4.72-1.11-7.5s.37-5.27,1.11-7.47c.74-2.19,1.77-4.06,3.1-5.6s2.91-2.71,4.75-3.51c1.84-.8,3.85-1.2,6.04-1.2.93,0,1.89.11,2.88.32s1.96.54,2.91.98c.95.44,1.82,1,2.63,1.68.8.68,1.48,1.48,2.03,2.41v-16.46h10.44v45.89ZM173.95,125.21c-.91.42-1.71,1.03-2.4,1.84-.7.8-1.25,1.81-1.65,3.04s-.6,2.62-.6,4.18.2,3.01.6,4.21c.4,1.2.95,2.22,1.65,3.04.7.82,1.5,1.45,2.4,1.87s1.89.63,2.94.63,1.98-.18,2.91-.54c.93-.36,1.73-.93,2.4-1.71.68-.78,1.21-1.78,1.61-3.01s.6-2.72.6-4.49-.2-3.27-.6-4.49-.94-2.22-1.61-2.98c-.67-.76-1.48-1.32-2.4-1.68-.93-.36-1.9-.54-2.91-.54s-2.04.21-2.94.63Z"/>
      <path class="cls-1" d="M218.6,124.45c-.97-.8-2.41-1.2-4.3-1.2-1.69,0-3.07.42-4.15,1.27-1.08.84-1.72,2.09-1.93,3.73h-9.75c.13-1.6.59-3.13,1.39-4.59.8-1.46,1.92-2.74,3.35-3.86,1.44-1.12,3.15-2,5.16-2.66,2-.65,4.27-.98,6.8-.98s4.62.26,6.52.79,3.5,1.36,4.81,2.5c1.31,1.14,2.29,2.62,2.94,4.43s.96,4.01.92,6.58l-.13,7.41v3.54c0,1.27.03,2.51.1,3.73.06,1.22.15,2.37.25,3.45.11,1.08.24,1.97.41,2.69h-10.25l-.13-4.11c-1.27,1.81-2.88,3.09-4.84,3.83-1.96.74-4.17,1.11-6.61,1.11-1.6,0-3.12-.23-4.56-.7-1.43-.46-2.69-1.13-3.77-1.99-1.08-.87-1.92-1.91-2.53-3.13-.61-1.22-.92-2.62-.92-4.18,0-2.07.56-3.82,1.68-5.25s2.68-2.62,4.68-3.54c2-.93,4.4-1.65,7.18-2.15,2.78-.51,5.82-.89,9.11-1.14v-1.33c0-2.03-.49-3.44-1.46-4.24ZM215.34,136.73c-1.5.21-2.77.51-3.83.89-1.05.38-1.88.88-2.47,1.49-.59.61-.89,1.36-.89,2.25,0,1.1.46,1.98,1.39,2.66.93.67,2.07,1.01,3.42,1.01,1.06,0,2.03-.13,2.91-.38.89-.25,1.66-.69,2.31-1.3.65-.61,1.17-1.43,1.55-2.47.38-1.03.57-2.33.57-3.89v-.82c-1.81.17-3.47.36-4.97.57Z"/>
      <path class="cls-1" d="M234.42,154.83h2.09c1.1,0,1.98-.03,2.66-.1.68-.06,1.23-.19,1.68-.38.44-.19.8-.47,1.08-.85.27-.38.54-.89.79-1.52l.32-.89-12.72-33.86h11.46l6.27,21.33,6.71-21.33h11.2l-13.35,34.05c-.84,2.15-1.68,3.95-2.5,5.38-.82,1.43-1.77,2.57-2.85,3.42-1.08.84-2.37,1.43-3.89,1.77-1.52.34-3.38.51-5.57.51h-3.35v-7.53Z"/>
      <path class="cls-1" d="M285.05,124.64c-1.22-.46-2.66-.7-4.3-.7-3.63,0-5.44.84-5.44,2.53,0,.8.33,1.43.98,1.9.65.46,1.72.84,3.2,1.14l6.33,1.14c4.09.76,7.13,1.86,9.11,3.29,1.98,1.43,2.97,3.65,2.97,6.65,0,1.9-.41,3.58-1.23,5.03-.82,1.46-1.97,2.66-3.45,3.61-1.48.95-3.22,1.67-5.22,2.15-2,.49-4.19.73-6.55.73-2.24,0-4.31-.24-6.23-.73s-3.61-1.22-5.06-2.21c-1.46-.99-2.65-2.24-3.58-3.73-.93-1.5-1.54-3.24-1.84-5.22h9.68c.46,1.65,1.32,2.77,2.56,3.39,1.24.61,2.77.92,4.59.92s3.38-.25,4.56-.76c1.18-.51,1.77-1.27,1.77-2.28,0-.76-.39-1.39-1.17-1.9-.78-.51-2.16-.93-4.15-1.27l-6.08-1.01c-3.29-.55-5.96-1.67-8.01-3.35-2.05-1.69-3.07-4.05-3.07-7.09,0-1.69.41-3.19,1.23-4.49.82-1.31,1.95-2.41,3.39-3.29,1.43-.89,3.09-1.56,4.97-2.03,1.88-.46,3.87-.7,5.98-.7,1.94,0,3.81.2,5.6.6,1.79.4,3.42,1.04,4.87,1.93,1.46.89,2.68,2.01,3.67,3.39.99,1.37,1.66,3.03,1.99,4.97h-9.75c-.34-1.27-1.12-2.13-2.34-2.59Z"/>
    </g>
  </g>
</svg>