<?xml version="1.0" encoding="UTF-8"?>
<svg id="Layer_2" data-name="Layer 2" xmlns="http://www.w3.org/2000/svg" viewBox="0 0 1057.13 1295.59">
  <defs>
    <style>
      .cls-1 {
        fill: #98979b;
      }

      .cls-2 {
        fill: #fff;
        stroke: #1d1d1b;
        stroke-miterlimit: 10;
      }

      .cls-3 {
        fill: #ff0;
      }
    </style>
  </defs>
  <g id="fondo">
    <rect class="cls-1" x="455.23" y="508.54" width="146.96" height="278.21"/>
    <rect class="cls-1" x="455.23" y="508.54" width="146.96" height="278.21" transform="translate(1176.36 118.92) rotate(90)"/>
    <g>
      <line class="cls-2" x1="528.56" y1="643.79" x2="528.56"/>
      <line class="cls-2" x1="528.56" y1="1295.59" x2="528.56" y2="651.79"/>
      <line class="cls-2" y1="647.79" x2="524.56" y2="647.79"/>
      <line class="cls-2" x1="532.56" y1="647.79" x2="1057.13" y2="647.79"/>
    </g>
    <rect class="cls-3" x="345.41" y="628.62" width="126.43" height="38.03" transform="translate(-239.01 1056.27) rotate(-90)"/>
    <rect x="393.85" y="631.21" width="32.85" height="32.85" transform="translate(-237.36 1057.92) rotate(-90)"/>
    <polygon class="cls-1" points="405.03 631.21 426.05 647.88 405.03 664.07 405.03 631.21"/>
    <rect class="cls-3" x="465.5" y="508.54" width="126.43" height="38.03"/>
    <rect x="512.29" y="512.78" width="32.85" height="32.85"/>
    <polygon class="cls-1" points="545.14 523.96 528.48 544.97 512.29 523.96 545.14 523.96"/>
    <rect class="cls-3" x="585.59" y="628.62" width="126.43" height="38.03" transform="translate(1296.44 -1.16) rotate(90)"/>
    <rect x="630.73" y="631.21" width="32.85" height="32.85" transform="translate(1294.79 .49) rotate(90)"/>
    <polygon class="cls-1" points="652.4 664.07 631.39 647.4 652.4 631.21 652.4 664.07"/>
    <rect class="cls-3" x="465.5" y="748.71" width="126.43" height="38.03" transform="translate(1057.43 1535.45) rotate(180)"/>
    <rect x="512.29" y="749.65" width="32.85" height="32.85" transform="translate(1057.43 1532.16) rotate(180)"/>
    <polygon class="cls-1" points="512.29 771.32 528.95 750.31 545.14 771.32 512.29 771.32"/>
  </g>
</svg>